{
  "accessors": [
    {
      "bufferView": 2,
      "componentType": 5126,
      "count": 65532,
      "max": [
        0.6714563965797424,
        0.6714560985565186,
        0.6429017186164856
      ],
      "min": [
        -0.6345353722572327,
        -0.6571284532546997,
        -0.38568222522735596
      ],
      "type": "VEC3"
    },
    {
      "bufferView": 2,
      "byteOffset": 786384,
      "componentType": 5126,
      "count": 65532,
      "max": [
        0.9999282360076904,
        0.9999979734420776,
        0.9999979734420776
      ],
      "min": [
        -0.9999282360076904,
        -0.9999979138374329,
        -0.9999979734420776
      ],
      "type": "VEC3"
    },
    {
      "bufferView": 1,
      "componentType": 5126,
      "count": 65532,
      "max": [
        0.9959160089492798,
        1.0
      ],
      "min": [
        2.756181629592902e-06,
        0.0
      ],
      "type": "VEC2"
    },
    {
      "bufferView": 1,
      "byteOffset": 524256,
      "componentType": 5126,
      "count": 65532,
      "max": [
        0.9959160089492798,
        1.0
      ],
      "min": [
        2.756181629592902e-06,
        0.0
      ],
      "type": "VEC2"
    },
    {
      "bufferView": 1,
      "byteOffset": 1048512,
      "componentType": 5126,
      "count": 65532,
      "max": [
        0.9959160089492798,
        1.0
      ],
      "min": [
        2.756181629592902e-06,
        0.0
      ],
      "type": "VEC2"
    },
    {
      "bufferView": 0,
      "componentType": 5125,
      "count": 343653,
      "type": "SCALAR"
    },
    {
      "bufferView": 2,
      "byteOffset": 1572768,
      "componentType": 5126,
      "count": 65532,
      "max": [
        0.6711583733558655,
        0.6098307371139526,
        0.6700320839881897
      ],
      "min": [
        -0.6501055359840393,
        -0.6714561581611633,
        -0.640428900718689
      ],
      "type": "VEC3"
    },
    {
      "bufferView": 2,
      "byteOffset": 2359152,
      "componentType": 5126,
      "count": 65532,
      "max": [
        0.9999979138374329,
        0.9999979734420776,
        0.9999979138374329
      ],
      "min": [
        -0.9999979138374329,
        -0.9999979734420776,
        -0.9999282956123352
      ],
      "type": "VEC3"
    },
    {
      "bufferView": 1,
      "byteOffset": 1572768,
      "componentType": 5126,
      "count": 65532,
      "max": [
        1.0,
        0.9972745180130005
      ],
      "min": [
        0.07236244529485703,
        0.0
      ],
      "type": "VEC2"
    },
    {
      "bufferView": 1,
      "byteOffset": 2097024,
      "componentType": 5126,
      "count": 65532,
      "max": [
        1.0,
        0.9972745180130005
      ],
      "min": [
        0.07236244529485703,
        0.0
      ],
      "type": "VEC2"
    },
    {
      "bufferView": 1,
      "byteOffset": 2621280,
      "componentType": 5126,
      "count": 65532,
      "max": [
        1.0,
        0.9972745180130005
      ],
      "min": [
        0.07236244529485703,
        0.0
      ],
      "type": "VEC2"
    },
    {
      "bufferView": 0,
      "byteOffset": 1374612,
      "componentType": 5125,
      "count": 346641,
      "type": "SCALAR"
    },
    {
      "bufferView": 2,
      "byteOffset": 3145536,
      "componentType": 5126,
      "count": 65532,
      "max": [
        0.65712970495224,
        0.6509361267089844,
        0.671455442905426
      ],
      "min": [
        -0.6714562773704529,
        -0.6655241250991821,
        -0.6700408458709717
      ],
      "type": "VEC3"
    },
    {
      "bufferView": 2,
      "byteOffset": 3931920,
      "componentType": 5126,
      "count": 65532,
      "max": [
        0.9999979138374329,
        0.9997890591621399,
        0.9997897148132324
      ],
      "min": [
        -0.9999979138374329,
        -0.9999282956123352,
        -0.9997894763946533
      ],
      "type": "VEC3"
    },
    {
      "bufferView": 1,
      "byteOffset": 3145536,
      "componentType": 5126,
      "count": 65532,
      "max": [
        0.9958184957504272,
        0.9963626861572266
      ],
      "min": [
        1.4967822608014103e-06,
        0.0
      ],
      "type": "VEC2"
    },
    {
      "bufferView": 1,
      "byteOffset": 3669792,
      "componentType": 5126,
      "count": 65532,
      "max": [
        0.9958184957504272,
        0.9963626861572266
      ],
      "min": [
        1.4967822608014103e-06,
        0.0
      ],
      "type": "VEC2"
    },
    {
      "bufferView": 1,
      "byteOffset": 4194048,
      "componentType": 5126,
      "count": 65532,
      "max": [
        0.9958184957504272,
        0.9963626861572266
      ],
      "min": [
        1.4967822608014103e-06,
        0.0
      ],
      "type": "VEC2"
    },
    {
      "bufferView": 0,
      "byteOffset": 2761176,
      "componentType": 5125,
      "count": 342405,
      "type": "SCALAR"
    },
    {
      "bufferView": 2,
      "byteOffset": 4718304,
      "componentType": 5126,
      "count": 65532,
      "max": [
        0.6714563965797424,
        0.6714560985565186,
        0.6711562275886536
      ],
      "min": [
        -0.6689369082450867,
        -0.6714561581611633,
        -0.6714559197425842
      ],
      "type": "VEC3"
    },
    {
      "bufferView": 2,
      "byteOffset": 5504688,
      "componentType": 5126,
      "count": 65532,
      "max": [
        0.999725341796875,
        0.9999282956123352,
        0.999725341796875
      ],
      "min": [
        -0.999725341796875,
        -0.999725341796875,
        -0.9998666644096375
      ],
      "type": "VEC3"
    },
    {
      "bufferView": 1,
      "byteOffset": 4718304,
      "componentType": 5126,
      "count": 65532,
      "max": [
        0.996943473815918,
        0.9941936135292053
      ],
      "min": [
        2.9819753763149492e-05,
        0.00017270934768021107
      ],
      "type": "VEC2"
    },
    {
      "bufferView": 1,
      "byteOffset": 5242560,
      "componentType": 5126,
      "count": 65532,
      "max": [
        0.996943473815918,
        0.9941936135292053
      ],
      "min": [
        2.9819753763149492e-05,
        0.00017270934768021107
      ],
      "type": "VEC2"
    },
    {
      "bufferView": 1,
      "byteOffset": 5766816,
      "componentType": 5126,
      "count": 65532,
      "max": [
        0.996943473815918,
        0.9941936135292053
      ],
      "min": [
        2.9819753763149492e-05,
        0.00017270934768021107
      ],
      "type": "VEC2"
    },
    {
      "bufferView": 0,
      "byteOffset": 4130796,
      "componentType": 5125,
      "count": 336822,
      "type": "SCALAR"
    },
    {
      "bufferView": 2,
      "byteOffset": 6291072,
      "componentType": 5126,
      "count": 31826,
      "max": [
        0.6496183276176453,
        0.6701500415802002,
        0.6516036987304688
      ],
      "min": [
        -0.6679576635360718,
        -0.6686183214187622,
        -0.6701481938362122
      ],
      "type": "VEC3"
    },
    {
      "bufferView": 2,
      "byteOffset": 6672984,
      "componentType": 5126,
      "count": 31826,
      "max": [
        0.9997892379760742,
        0.9997890591621399,
        0.9993878602981567
      ],
      "min": [
        -0.9992353320121765,
        -0.999686598777771,
        -0.9997867345809937
      ],
      "type": "VEC3"
    },
    {
      "bufferView": 1,
      "byteOffset": 6291072,
      "componentType": 5126,
      "count": 31826,
      "max": [
        0.9982274770736694,
        0.9975851774215698
      ],
      "min": [
        1.3981511983729433e-06,
        0.00020175249665044248
      ],
      "type": "VEC2"
    },
    {
      "bufferView": 1,
      "byteOffset": 6545680,
      "componentType": 5126,
      "count": 31826,
      "max": [
        0.9982274770736694,
        0.9975851774215698
      ],
      "min": [
        1.3981511983729433e-06,
        0.00020175249665044248
      ],
      "type": "VEC2"
    },
    {
      "bufferView": 1,
      "byteOffset": 6800288,
      "componentType": 5126,
      "count": 31826,
      "max": [
        0.9982274770736694,
        0.9975851774215698
      ],
      "min": [
        1.3981511983729433e-06,
        0.00020175249665044248
      ],
      "type": "VEC2"
    },
    {
      "bufferView": 0,
      "byteOffset": 5478084,
      "componentType": 5125,
      "count": 121401,
      "type": "SCALAR"
    },
    {
      "bufferView": 2,
      "byteOffset": 7054896,
      "componentType": 5126,
      "count": 42903,
      "max": [
        0.6899849772453308,
        0.6899849772453308,
        0.6899849772453308
      ],
      "min": [
        -0.6899849772453308,
        -0.6899849772453308,
        -0.6899849772453308
      ],
      "type": "VEC3"
    },
    {
      "bufferView": 2,
      "byteOffset": 7569732,
      "componentType": 5126,
      "count": 42903,
      "max": [
        0.9999916553497314,
        0.9999916553497314,
        0.9999916553497314
      ],
      "min": [
        -0.9999916553497314,
        -0.9999916553497314,
        -0.9999915957450867
      ],
      "type": "VEC3"
    },
    {
      "bufferView": 1,
      "byteOffset": 7054896,
      "componentType": 5126,
      "count": 42903,
      "max": [
        0.9969938397407532,
        0.9997838139533997
      ],
      "min": [
        0.0,
        0.0
      ],
      "type": "VEC2"
    },
    {
      "bufferView": 0,
      "byteOffset": 5963688,
      "componentType": 5125,
      "count": 214038,
      "type": "SCALAR"
    },
    {
      "bufferView": 3,
      "componentType": 5126,
      "count": 250,
      "max": [
        10.416666984558105
      ],
      "min": [
        0.0416666679084301
      ],
      "type": "SCALAR"
    },
    {
      "bufferView": 4,
      "componentType": 5126,
      "count": 250,
      "max": [
        0.0,
        0.4999605417251587,
        0.49996066093444824,
        1.0
      ],
      "min": [
        -1.0,
        -0.49996066093444824,
        -0.4999605417251587,
        1.910685676922942e-15
      ],
      "type": "VEC4"
    },
    {
      "bufferView": 3,
      "byteOffset": 1000,
      "componentType": 5126,
      "count": 251,
      "max": [
        10.458333015441895
      ],
      "min": [
        0.0416666679084301
      ],
      "type": "SCALAR"
    },
    {
      "bufferView": 4,
      "byteOffset": 4000,
      "componentType": 5126,
      "count": 251,
      "max": [
        0.0,
        0.4999605417251587,
        0.4999605417251587,
        1.0
      ],
      "min": [
        -1.0,
        -0.4999605417251587,
        -0.4999605417251587,
        1.910685676922942e-15
      ],
      "type": "VEC4"
    }
  ],
  "animations": [
    {
      "channels": [
        {
          "sampler": 0,
          "target": {
            "node": 3,
            "path": "rotation"
          }
        }
      ],
      "name": "Action",
      "samplers": [
        {
          "input": 34,
          "interpolation": "LINEAR",
          "output": 35
        }
      ]
    },
    {
      "channels": [
        {
          "sampler": 0,
          "target": {
            "node": 3,
            "path": "rotation"
          }
        }
      ],
      "name": "Solid CopyAction",
      "samplers": [
        {
          "input": 36,
          "interpolation": "LINEAR",
          "output": 37
        }
      ]
    }
  ],
  "asset": {
    "extras": {
      "author": "smice (https://sketchfab.com/smice)",
      "license": "CC-BY-4.0 (http://creativecommons.org/licenses/by/4.0/)",
      "source": "https://sketchfab.com/3d-models/the-gordian-knot-f2106f548c784a049f20e02ed59955f2",
      "title": "The Gordian Knot"
    },
    "generator": "Sketchfab-15.22.0",
    "version": "2.0"
  },
  "bufferViews": [
    {
      "buffer": 0,
      "byteLength": 6819840,
      "name": "floatBufferViews",
      "target": 34963
    },
    {
      "buffer": 0,
      "byteLength": 7398120,
      "byteOffset": 6819840,
      "byteStride": 8,
      "name": "floatBufferViews",
      "target": 34962
    },
    {
      "buffer": 0,
      "byteLength": 8084568,
      "byteOffset": 14217960,
      "byteStride": 12,
      "name": "floatBufferViews",
      "target": 34962
    },
    {
      "buffer": 0,
      "byteLength": 2004,
      "byteOffset": 22302528,
      "name": "floatBufferViews"
    },
    {
      "buffer": 0,
      "byteLength": 8016,
      "byteOffset": 22304532,
      "byteStride": 16,
      "name": "floatBufferViews"
    }
  ],
  "buffers": [
    {
      "byteLength": 22312548,
      "uri": "scene.bin"
    }
  ],
  "images": [
    {
      "uri": "textures/base_baseColor.jpeg"
    },
    {
      "uri": "textures/base_metallicRoughness.png"
    }
  ],
  "materials": [
    {
      "doubleSided": true,
      "name": "base",
      "pbrMetallicRoughness": {
        "baseColorTexture": {
          "index": 0
        },
        "metallicRoughnessTexture": {
          "index": 1,
          "texCoord": 1
        }
      }
    },
    {
      "doubleSided": true,
      "name": "material",
      "pbrMetallicRoughness": {
        "baseColorFactor": [
          0.8,
          0.75979,
          0.690004,
          1.0
        ],
        "metallicFactor": 0.659091,
        "roughnessFactor": 0.0181818
      }
    }
  ],
  "meshes": [
    {
      "name": "Object_0",
      "primitives": [
        {
          "attributes": {
            "NORMAL": 1,
            "POSITION": 0,
            "TEXCOORD_0": 2,
            "TEXCOORD_1": 3,
            "TEXCOORD_2": 4
          },
          "indices": 5,
          "material": 0,
          "mode": 4
        }
      ]
    },
    {
      "name": "Object_1",
      "primitives": [
        {
          "attributes": {
            "NORMAL": 7,
            "POSITION": 6,
            "TEXCOORD_0": 8,
            "TEXCOORD_1": 9,
            "TEXCOORD_2": 10
          },
          "indices": 11,
          "material": 0,
          "mode": 4
        }
      ]
    },
    {
      "name": "Object_2",
      "primitives": [
        {
          "attributes": {
            "NORMAL": 13,
            "POSITION": 12,
            "TEXCOORD_0": 14,
            "TEXCOORD_1": 15,
            "TEXCOORD_2": 16
          },
          "indices": 17,
          "material": 0,
          "mode": 4
        }
      ]
    },
    {
      "name": "Object_3",
      "primitives": [
        {
          "attributes": {
            "NORMAL": 19,
            "POSITION": 18,
            "TEXCOORD_0": 20,
            "TEXCOORD_1": 21,
            "TEXCOORD_2": 22
          },
          "indices": 23,
          "material": 0,
          "mode": 4
        }
      ]
    },
    {
      "name": "Object_4",
      "primitives": [
        {
          "attributes": {
            "NORMAL": 25,
            "POSITION": 24,
            "TEXCOORD_0": 26,
            "TEXCOORD_1": 27,
            "TEXCOORD_2": 28
          },
          "indices": 29,
          "material": 0,
          "mode": 4
        }
      ]
    },
    {
      "name": "Object_5",
      "primitives": [
        {
          "attributes": {
            "NORMAL": 31,
            "POSITION": 30,
            "TEXCOORD_0": 32
          },
          "indices": 33,
          "material": 1,
          "mode": 4
        }
      ]
    }
  ],
  "nodes": [
    {
      "children": [
        1
      ],
      "matrix": [
        1.0,
        0.0,
        0.0,
        0.0,
        0.0,
        2.220446049250313e-16,
        -1.0,
        0.0,
        0.0,
        1.0,
        2.220446049250313e-16,
        0.0,
        0.0,
        0.0,
        0.0,
        1.0
      ],
      "name": "Sketchfab_model"
    },
    {
      "children": [
        2
      ],
      "name": "root"
    },
    {
      "children": [
        3
      ],
      "matrix": [
        1.0,
        0.0,
        0.0,
        0.0,
        0.0,
        2.220446049250313e-16,
        1.0,
        0.0,
        0.0,
        -1.0,
        2.220446049250313e-16,
        0.0,
        0.0,
        0.0,
        0.0,
        1.0
      ],
      "name": "GLTF_SceneRootNode"
    },
    {
      "children": [
        4,
        5,
        6,
        7,
        8,
        9
      ],
      "name": "Solid Copy_0",
      "translation": [
        0.004135166760534048,
        1.099740743637085,
        -0.0033247608225792646
      ]
    },
    {
      "mesh": 0,
      "name": "Object_4"
    },
    {
      "mesh": 1,
      "name": "Object_5"
    },
    {
      "mesh": 2,
      "name": "Object_6"
    },
    {
      "mesh": 3,
      "name": "Object_7"
    },
    {
      "mesh": 4,
      "name": "Object_8"
    },
    {
      "mesh": 5,
      "name": "Object_9"
    }
  ],
  "samplers": [
    {
      "magFilter": 9729,
      "minFilter": 9987,
      "wrapS": 10497,
      "wrapT": 10497
    }
  ],
  "scene": 0,
  "scenes": [
    {
      "name": "Sketchfab_Scene",
      "nodes": [
        0
      ]
    }
  ],
  "textures": [
    {
      "sampler": 0,
      "source": 0
    },
    {
      "sampler": 0,
      "source": 1
    }
  ]
}
